<svg xmlns="http://www.w3.org/2000/svg" xmlns:xlink="http://www.w3.org/1999/xlink" viewBox="0 0 119.16 96.99"><defs><style>.cls-1{fill:#f9dc5c;}.cls-2{fill:url(#linear-gradient);}.cls-3{fill:#effffa;}.cls-4{fill:url(#linear-gradient-2);}.cls-5{fill:url(#linear-gradient-3);}</style><linearGradient id="linear-gradient" x1="4.33" y1="42.76" x2="114.83" y2="42.76" gradientUnits="userSpaceOnUse"><stop offset="0" stop-color="#005cff"/><stop offset="1" stop-color="#0988c9"/></linearGradient><linearGradient id="linear-gradient-2" x1="1.45" y1="6.49" x2="117.71" y2="6.49" xlink:href="#linear-gradient"/><linearGradient id="linear-gradient-3" x1="1.45" y1="77.6" x2="117.71" y2="77.6" xlink:href="#linear-gradient"/></defs><title>Asset 4</title><g id="Layer_2" data-name="Layer 2"><g id="Layer_1-2" data-name="Layer 1"><rect class="cls-1" x="27.17" y="86.96" width="19.66" height="2.89" transform="translate(-55.2 62.26) rotate(-51.46)"/><rect class="cls-1" x="80.71" y="78.58" width="2.89" height="19.66" transform="translate(-37.19 70.48) rotate(-38.55)"/><path class="cls-1" d="M116.28,75.44H2.88V10.09h113.4ZM5.78,72.54h107.6V13H5.78Z"/><rect class="cls-2" x="4.33" y="11.54" width="110.5" height="62.46"/><path class="cls-3" d="M45.12,34.24A15.47,15.47,0,1,1,29.65,18.77,15.46,15.46,0,0,1,45.12,34.24Z"/><path class="cls-1" d="M119.16,13H0V0H119.16ZM2.89,10.09H116.26V2.89H2.89Z"/><rect class="cls-4" x="1.45" y="1.45" width="116.26" height="10.09"/><path class="cls-1" d="M119.16,82.17H0V73H119.16ZM2.89,79.27H116.26V75.92H2.89Z"/><rect class="cls-5" x="1.45" y="74.47" width="116.26" height="6.25"/><rect class="cls-1" x="58.13" y="80.72" width="2.89" height="15.37"/><rect class="cls-1" x="20.37" y="32.79" width="18.56" height="2.89" transform="translate(-15.52 31) rotate(-45)"/><rect class="cls-1" x="28.21" y="24.96" width="2.9" height="18.56" transform="translate(-15.52 30.99) rotate(-44.99)"/><path class="cls-3" d="M102.63,50.76A15.08,15.08,0,1,1,87.55,35.68,15.08,15.08,0,0,1,102.63,50.76Z"/><path class="cls-1" d="M87.55,61.1A10.34,10.34,0,1,1,97.9,50.76,10.35,10.35,0,0,1,87.55,61.1Zm0-17.78A7.45,7.45,0,1,0,95,50.76,7.45,7.45,0,0,0,87.55,43.32Z"/><polygon class="cls-1" points="75.67 32.12 67.91 24.37 60.16 32.12 58.12 30.07 67.91 20.27 77.71 30.07 75.67 32.12"/><path class="cls-1" d="M32.43,64.27V61.38c18.9,0,34.27-15.17,34.27-33.81,0-1.15-.06-2.31-.17-3.45l2.88-.3c.12,1.24.19,2.51.19,3.75C69.6,47.81,52.93,64.27,32.43,64.27Z"/></g></g></svg>