<svg xmlns="http://www.w3.org/2000/svg" xmlns:xlink="http://www.w3.org/1999/xlink" viewBox="0 0 139.51 97.86"><defs><style>.cls-1{fill:#f9dc5c;}.cls-2{fill:url(#linear-gradient);}.cls-3{fill:url(#linear-gradient-2);}.cls-4{fill:url(#linear-gradient-3);}.cls-5{fill:url(#linear-gradient-4);}.cls-6{fill:url(#linear-gradient-5);}.cls-7{fill:#effffa;}</style><linearGradient id="linear-gradient" x1="1.24" y1="25.08" x2="111.2" y2="25.08" gradientUnits="userSpaceOnUse"><stop offset="0" stop-color="#005cff"/><stop offset="1" stop-color="#0988c9"/></linearGradient><linearGradient id="linear-gradient-2" x1="88.4" y1="25.08" x2="115.45" y2="25.08" xlink:href="#linear-gradient"/><linearGradient id="linear-gradient-3" x1="107.7" y1="67.93" x2="115.32" y2="67.93" xlink:href="#linear-gradient"/><linearGradient id="linear-gradient-4" x1="84.76" y1="28" x2="138.27" y2="28" xlink:href="#linear-gradient"/><linearGradient id="linear-gradient-5" x1="106.05" y1="76.62" x2="116.98" y2="76.62" xlink:href="#linear-gradient"/></defs><title>Asset 2</title><g id="Layer_2" data-name="Layer 2"><g id="Layer_1-2" data-name="Layer 1"><path class="cls-1" d="M108.81,36.42H3.64A3.64,3.64,0,0,1,0,32.78V17.38a3.64,3.64,0,0,1,3.64-3.63H108.81a3.64,3.64,0,0,1,3.64,3.63v15.4A3.64,3.64,0,0,1,108.81,36.42ZM3.64,16.24a1.14,1.14,0,0,0-1.15,1.14v15.4a1.14,1.14,0,0,0,1.15,1.15H108.81A1.15,1.15,0,0,0,110,32.78V17.38a1.15,1.15,0,0,0-1.15-1.14Z"/><rect class="cls-2" x="1.24" y="14.99" width="109.96" height="20.18" rx="2.39" ry="2.39"/><rect class="cls-1" x="5.84" y="19.24" width="2.49" height="12.75"/><path class="cls-1" d="M107.77,40.67H88.93l-.13-1.1a11.82,11.82,0,0,1,0-1.67A7.26,7.26,0,0,0,88.61,36c-4-14.78.89-19.2,7.72-25.32L97.69,9.5h10.08c4.92,0,8.93,3.53,8.93,7.88v15.4C116.7,37.13,112.69,40.67,107.77,40.67ZM91.23,38.18h16.54c3.55,0,6.44-2.42,6.44-5.4V17.38c0-3-2.89-5.4-6.44-5.4H98.64l-.65.59c-6.62,5.94-10.62,9.52-7,22.81a8.45,8.45,0,0,1,.22,2.55Z"/><path class="cls-3" d="M107.77,10.74h-9.6C91,17.23,85.78,21,89.81,35.71A23,23,0,0,1,90,39.42h17.74c4.24,0,7.68-3,7.68-6.64V17.38C115.45,13.72,112,10.74,107.77,10.74Z"/><rect class="cls-1" x="109.92" y="15.21" width="15.12" height="1.24" transform="translate(23.22 87.71) rotate(-45)"/><rect class="cls-1" x="109.19" y="16.79" width="25.23" height="1.24" transform="translate(23.36 91.23) rotate(-45)"/><path class="cls-1" d="M107.71,84.29A1.26,1.26,0,0,1,106.46,83V52.82a1.25,1.25,0,0,1,.36-.88,1.23,1.23,0,0,1,.88-.37h7.62a1.25,1.25,0,0,1,1.25,1.25V83a1.24,1.24,0,0,1-1.25,1.24ZM109,54.06V81.8h5.13V54.06Z"/><rect class="cls-4" x="107.7" y="52.82" width="7.62" height="30.22"/><path class="cls-1" d="M111.52,56a28,28,0,0,1-.07-56,28,28,0,0,1,19.87,47.81A27.84,27.84,0,0,1,111.58,56Zm0-53.52a25.52,25.52,0,1,0,0,51v1.24l0-1.24a25.53,25.53,0,0,0,18-43.57A25.35,25.35,0,0,0,111.51,2.49Zm.06,47.34a21.83,21.83,0,1,1-.1-43.65h0A21.8,21.8,0,0,1,133.34,28a21.78,21.78,0,0,1-21.77,21.83Zm0-42.41,0,1.24a19.34,19.34,0,1,0,13.71,5.66,19.22,19.22,0,0,0-13.71-5.66Z"/><path class="cls-5" d="M138.27,28a26.73,26.73,0,1,0-7.83,18.93A26.64,26.64,0,0,0,138.27,28ZM111.56,48.59a20.55,20.55,0,1,1,14.52-6A20.48,20.48,0,0,1,111.56,48.59Z"/><path class="cls-1" d="M117,93H106.05a1.25,1.25,0,0,1-1.25-1.24V61.51a1.25,1.25,0,0,1,1.25-1.25H117a1.25,1.25,0,0,1,.88.36,1.27,1.27,0,0,1,.36.88V91.73A1.24,1.24,0,0,1,117,93Zm-9.69-2.49h8.44V62.75h-8.45Z"/><rect class="cls-6" x="106.05" y="61.5" width="10.93" height="30.22"/><path class="cls-1" d="M106.05,66.87a1.23,1.23,0,0,1-1.24-1.24V59.84a1.23,1.23,0,0,1,.37-.88,1.25,1.25,0,0,1,.88-.36H117a1.25,1.25,0,0,1,.88.36,1.27,1.27,0,0,1,.36.88v5.79A1.24,1.24,0,0,1,117,66.87Zm1.24-5.78v3.29h8.44V61.09Z"/><rect class="cls-7" x="106.05" y="59.84" width="10.93" height="5.78"/><path class="cls-1" d="M111.51,97.86a8.89,8.89,0,0,1-6.34-2.63,1.22,1.22,0,0,1-.37-.88V91.72a1.25,1.25,0,0,1,1.25-1.24H117a1.24,1.24,0,0,1,1.24,1.25v2.62a1.25,1.25,0,0,1-.36.88A8.91,8.91,0,0,1,111.51,97.86Zm-4.22-4a6.49,6.49,0,0,0,8.44,0V93h-8.44Z"/><path class="cls-7" d="M117,94.35a7.73,7.73,0,0,1-10.93,0V91.73H117Z"/></g></g></svg>