<svg xmlns="http://www.w3.org/2000/svg" viewBox="0 0 113.61 114.81"><defs><style>.cls-1{fill:#fff;}.cls-2{fill:#49505a;}.cls-3{fill:#f7f8fc;}.cls-4{fill:#e6e8eb;}</style></defs><title>Icon 5</title><g id="Layer_2" data-name="Layer 2"><g id="Layer_1-2" data-name="Layer 1"><path class="cls-1" d="M97.11,81.54V76.73a11.78,11.78,0,0,0,4.75-9.44V46.81l-.22-4.53a4.4,4.4,0,0,0-4.39-4.39c-2.43,0-4.39.87-4.39,3.29V40.09a4.39,4.39,0,0,0-8.78,0v-2.2a4.39,4.39,0,1,0-8.77,0v2.47c0-2.07,0,.32,0,.32a4.54,4.54,0,1,0-9.08,0l0,18.75-.09-2.16V48.2a6.7,6.7,0,0,0-6.7-6.7H57.13c-.09,0,.1,0,0,0v8.39h0V61.05L69.84,75.83a11.78,11.78,0,0,0,5.32,2.91v2.8Z"/><path class="cls-2" d="M98.14,79.71H96.08v-3.5l.41-.31a10.68,10.68,0,0,0,4.33-8.61V46.81l-.22-4.48a3.37,3.37,0,0,0-3.35-3.41c-3.35,0-3.36,1.7-3.36,2.26H91.83V40.09a3.36,3.36,0,0,0-6.72,0H83.05v-2.2a3.36,3.36,0,1,0-6.71,0v2.46h0v.33H74.23a3.51,3.51,0,1,0-7,0l0,18.76-2.06,0L65,57.32V48.2a5.68,5.68,0,0,0-5.67-5.67H58.16v7.29l.12.84-.12,0v10L70.59,75.12a10.69,10.69,0,0,0,4.82,2.61l.78.2v1.94H74.13v-.35a12.81,12.81,0,0,1-5-2.94l-.07-.07-13-15.08v-19H56l.1-1.93h3.23a7.75,7.75,0,0,1,5.78,2.6V40.68a5.57,5.57,0,0,1,9.3-4.15,5.42,5.42,0,0,1,10.36-.44,5.42,5.42,0,0,1,8.61,1.8,6.47,6.47,0,0,1,3.83-1,5.42,5.42,0,0,1,5.42,5.42l.22,4.48V67.29a12.72,12.72,0,0,1-4.75,9.94Z"/><path class="cls-1" d="M18.29,56.74a29.12,29.12,0,1,1,39.08-37,29.12,29.12,0,0,1-39.08,37ZM51.76,39.87A23.67,23.67,0,1,0,8.58,20.46,23.67,23.67,0,1,0,51.76,39.87Z"/><path class="cls-2" d="M30.18,60.33A30.26,30.26,0,0,1,2,40.91,30.16,30.16,0,0,1,30.14,0a30.33,30.33,0,0,1,28.2,19.4A30.19,30.19,0,0,1,30.18,60.33Zm0-58.27A28.08,28.08,0,1,0,56.41,20.13,28,28,0,0,0,30.14,2.06Zm.05,52.82h0A24.72,24.72,0,0,1,21.35,7.07a24.38,24.38,0,0,1,8.8-1.63A24.71,24.71,0,0,1,52.7,40.29,24.7,24.7,0,0,1,30.19,54.88Zm0-47.38A22.67,22.67,0,0,0,9.52,20.88,22.68,22.68,0,0,0,30.19,52.82h0A22.69,22.69,0,0,0,51.33,22.07,22.79,22.79,0,0,0,30.15,7.5Z"/><path class="cls-1" d="M59.82,47.45,55,45.36a28.53,28.53,0,0,0,3-6.8l4.85,2.09Z"/><path class="cls-2" d="M59.42,48.39l-4.84-2.08a1,1,0,0,1-.47-1.48,29.14,29.14,0,0,0,1.67-3.15,29.45,29.45,0,0,0,1.27-3.42,1,1,0,0,1,.55-.63,1,1,0,0,1,.85,0L63.3,39.7l-.82,1.9L58.67,40c-.3.88-.64,1.74-1,2.56s-.75,1.57-1.19,2.36l3.76,1.62Z"/><rect class="cls-1" x="80.88" y="30.28" width="11.89" height="50.4" transform="translate(0.74 112.11) rotate(-65.92)"/><path class="cls-2" d="M107.4,72.22a1,1,0,0,1-.42-.09L61,51.57a1,1,0,0,1-.52-1.37L65.3,39.35a1.06,1.06,0,0,1,.57-.55,1,1,0,0,1,.79,0l46,20.56a1,1,0,0,1,.52,1.36l-4.86,10.86a1,1,0,0,1-.57.54A.94.94,0,0,1,107.4,72.22ZM62.75,50.1l44.13,19.73,4-9L66.76,41.13Z"/><rect class="cls-3" x="57.22" y="42.51" width="11.9" height="4.79" transform="translate(-3.61 84.25) rotate(-65.92)"/><path class="cls-2" d="M63.45,52.68l-6.26-2.8,5.7-12.74,6.25,2.79Zm-3.53-3.84L62.4,50l4-9-2.49-1.11Z"/><path class="cls-3" d="M107.17,71.09A8.41,8.41,0,0,0,112,60.23l-2.6-1.17q-2.43,5.44-4.86,10.86Z"/><path class="cls-2" d="M107.17,72.12a1.06,1.06,0,0,1-.42-.09l-2.61-1.17a1,1,0,0,1-.52-1.36l4.86-10.86a1,1,0,0,1,1.36-.52l2.61,1.17a1,1,0,0,1,.54.57,9.45,9.45,0,0,1-5.45,12.19A.94.94,0,0,1,107.17,72.12Zm-1.24-2.72,1.26.56a7.38,7.38,0,0,0,4-9l-1.26-.56Z"/><rect class="cls-2" x="21.51" y="15.71" width="22.62" height="2.06" transform="translate(-2.22 28.11) rotate(-45)"/><rect class="cls-2" x="15.35" y="23.67" width="36.11" height="2.06" transform="translate(-7.68 30.86) rotate(-44.99)"/><path class="cls-2" d="M76.19,80.14H74.13v-.62a12.81,12.81,0,0,1-5-2.94l-.07-.07-13-15.08V56.74c0-.22,0-.4,0-.56v0a1,1,0,0,1,.38-.8L58.16,54V56.8a1.22,1.22,0,0,1,0,.27v3.6L70.59,75.12a10.69,10.69,0,0,0,4.82,2.61l.78.2Z"/><path class="cls-1" d="M97.11,81.54V76.73a11.78,11.78,0,0,0,4.75-9.44V46.81l-.22-4.53a4.4,4.4,0,0,0-4.39-4.39c-2.43,0-4.39.87-4.39,3.29V40.09a4.39,4.39,0,0,0-8.78,0v-2.2a4.39,4.39,0,1,0-8.77,0v2.47a4.61,4.61,0,0,0-4.58-4.22,4.54,4.54,0,0,0-4.54,4.54V59.43Z"/><path class="cls-2" d="M98.14,79.71H96.08v-3l.41-.83a10.68,10.68,0,0,0,4.33-8.61V46.81l-.22-4.48a3.37,3.37,0,0,0-3.35-3.41c-3.35,0-3.36,1.7-3.36,2.26H91.83V40.09a3.36,3.36,0,0,0-6.72,0H83.05v-2.2a3.36,3.36,0,1,0-6.71,0v2.47H74.27a3.61,3.61,0,0,0-3.54-3.19,3.51,3.51,0,0,0-3.51,3.51V59.43H65.15V40.68a5.58,5.58,0,0,1,5.58-5.58,5.8,5.8,0,0,1,3.72,1.43,5.42,5.42,0,0,1,10.36-.44,5.42,5.42,0,0,1,8.61,1.8,6.47,6.47,0,0,1,3.83-1,5.42,5.42,0,0,1,5.42,5.42l.22,4.48V67.29a12.72,12.72,0,0,1-4.75,9.94Z"/><polygon class="cls-2" points="105.53 114.81 103.47 114.81 103.47 80.4 73.45 80.4 73.45 114.81 71.38 114.81 71.38 78.33 105.53 78.33 105.53 114.81"/><path class="cls-4" d="M100.91,93.68a1.53,1.53,0,1,1,1.52-1.53A1.53,1.53,0,0,1,100.91,93.68Z"/><path class="cls-2" d="M100.91,91.66a.49.49,0,1,1-.49.49.49.49,0,0,1,.49-.49Zm0-2.06a2.56,2.56,0,1,0,2.56,2.55,2.56,2.56,0,0,0-2.56-2.55Z"/><polyline class="cls-2" points="71.38 83.87 109.62 83.87 109.62 114.81 107.56 114.81 107.56 85.93 73.45 85.93"/></g></g></svg>