<svg xmlns="http://www.w3.org/2000/svg" viewBox="0 0 114.66 81.49"><defs><style>.cls-1{fill:#49505a;}.cls-2{fill:#fff;}</style></defs><title>Icon 7</title><g id="Layer_2" data-name="Layer 2"><g id="Layer_1-2" data-name="Layer 1"><path class="cls-1" d="M57.33,81.49c-23.17,0-44.59-15-55.91-39.27L.74,40.75l.68-1.47C12.74,15.05,34.16,0,57.33,0s44.61,15.05,55.9,39.28l.69,1.47-.69,1.47C101.94,66.44,80.51,81.49,57.33,81.49ZM8.43,40.75c10.32,20.88,28.92,33.79,48.9,33.79s38.6-12.9,48.9-33.79C95.93,19.86,77.32,7,57.33,7S18.75,19.86,8.43,40.75Z"/><path class="cls-2" d="M57.33,3.48c-22.65,0-42.37,15-52.75,37.27C15,63,34.68,78,57.33,78s42.38-15,52.75-37.27C99.71,18.51,80,3.48,57.33,3.48Z"/><path class="cls-1" d="M57.33,64.58c-22.8,0-44-8.27-55.4-21.57L0,40.75l1.93-2.26c11.38-13.31,32.6-21.58,55.4-21.58s44,8.27,55.4,21.59l1.93,2.25L112.73,43C101.37,56.31,80.14,64.58,57.33,64.58Zm-48-23.83c10.52,10.47,28.56,16.87,48,16.87s37.51-6.4,48-16.87c-10.51-10.48-28.55-16.88-48-16.88S19.83,30.27,9.31,40.75Z"/><path class="cls-2" d="M57.33,20.39C34.68,20.39,15,28.6,4.58,40.75,15,52.9,34.68,61.1,57.33,61.1s42.38-8.2,52.75-20.35C99.71,28.6,80,20.39,57.33,20.39Z"/><path class="cls-1" d="M57.33,64.58A89.31,89.31,0,0,1,26,59.06l-1.26-.48-.61-1.21a37.15,37.15,0,0,1,0-33.24l.61-1.21L26,22.44a89,89,0,0,1,31.31-5.53,89.23,89.23,0,0,1,31.31,5.52l1.27.49.61,1.21a37.07,37.07,0,0,1,0,33.24l-.6,1.21-1.27.48A89.27,89.27,0,0,1,57.33,64.58Zm0-40a16.21,16.21,0,1,0,16.21,16.2A16.22,16.22,0,0,0,57.33,24.54Zm17.56,1.12a23.12,23.12,0,0,1,0,30.17,77.68,77.68,0,0,0,10-2.79,30.14,30.14,0,0,0,0-24.58A75.68,75.68,0,0,0,74.89,25.66ZM29.79,53a77.08,77.08,0,0,0,10,2.79,23.13,23.13,0,0,1,0-30.17,77.55,77.55,0,0,0-10,2.8,30.19,30.19,0,0,0,0,24.58Z"/><path class="cls-2" d="M27.25,25.69a33.59,33.59,0,0,0,0,30.12A85.36,85.36,0,0,0,57.33,61.1a85.27,85.27,0,0,0,30.08-5.29,33.66,33.66,0,0,0,0-30.13,85.27,85.27,0,0,0-30.08-5.29A85,85,0,0,0,27.25,25.69ZM77,40.74A19.68,19.68,0,1,1,57.33,21.06,19.67,19.67,0,0,1,77,40.74Z"/><path class="cls-1" d="M57.33,63.9A23.16,23.16,0,1,1,80.49,40.74,23.19,23.19,0,0,1,57.33,63.9Zm0-39.36a16.21,16.21,0,1,0,16.21,16.2A16.22,16.22,0,0,0,57.33,24.54Z"/><path class="cls-2" d="M77,40.74A19.68,19.68,0,1,1,57.33,21.06,19.68,19.68,0,0,1,77,40.74Z"/></g></g></svg>