<svg xmlns="http://www.w3.org/2000/svg" xmlns:xlink="http://www.w3.org/1999/xlink" viewBox="0 0 145.24 95.63"><defs><style>.cls-1{fill:#f9dc5c;}.cls-2{fill:url(#linear-gradient);}.cls-3{fill:url(#linear-gradient-2);}.cls-4{fill:url(#linear-gradient-3);}.cls-5{fill:#effffa;}.cls-6{fill:#fff;}.cls-7{fill:url(#linear-gradient-4);}.cls-8{fill:url(#linear-gradient-5);}.cls-9{fill:url(#linear-gradient-6);}.cls-10{fill:url(#linear-gradient-7);}.cls-11{fill:url(#linear-gradient-8);}.cls-12{fill:#484f59;}.cls-13{fill:url(#linear-gradient-9);}</style><linearGradient id="linear-gradient" x1="1.52" y1="47.81" x2="143.72" y2="47.81" gradientUnits="userSpaceOnUse"><stop offset="0" stop-color="#005cff"/><stop offset="1" stop-color="#0988c9"/></linearGradient><linearGradient id="linear-gradient-2" x1="10.12" y1="28.24" x2="46.84" y2="28.24" xlink:href="#linear-gradient"/><linearGradient id="linear-gradient-3" x1="11.25" y1="42.42" x2="45.71" y2="42.42" xlink:href="#linear-gradient"/><linearGradient id="linear-gradient-4" x1="1.59" y1="6.55" x2="143.61" y2="6.55" xlink:href="#linear-gradient"/><linearGradient id="linear-gradient-5" x1="10.74" y1="78.22" x2="29.68" y2="78.22" xlink:href="#linear-gradient"/><linearGradient id="linear-gradient-6" x1="37.11" y1="78.22" x2="56.05" y2="78.22" xlink:href="#linear-gradient"/><linearGradient id="linear-gradient-7" x1="63.48" y1="78.22" x2="82.41" y2="78.22" xlink:href="#linear-gradient"/><linearGradient id="linear-gradient-8" x1="89.85" y1="78.22" x2="108.78" y2="78.22" xlink:href="#linear-gradient"/><linearGradient id="linear-gradient-9" x1="110.59" y1="63.02" x2="133.11" y2="63.02" xlink:href="#linear-gradient"/></defs><title>Asset 3</title><g id="Layer_2" data-name="Layer 2"><g id="Layer_1-2" data-name="Layer 1"><path class="cls-1" d="M145.24,95.63H0V0H145.24ZM3,92.58H142.2V3H3Z"/><rect class="cls-2" x="1.52" y="1.52" width="142.2" height="92.58"/><path class="cls-1" d="M48.37,33.17H8.6V23.3H48.37Zm-36.73-3H45.32V26.35H11.64Z"/><rect class="cls-3" x="10.12" y="24.82" width="36.72" height="6.83"/><path class="cls-1" d="M47.24,54.7H9.73V30.13H47.24Zm-34.47-3H44.19V33.17H12.77Z"/><rect class="cls-4" x="11.25" y="31.65" width="34.47" height="21.53"/><path class="cls-1" d="M33.3,33.17H23.67V23.3H33.3Zm-6.59-3h3.55V26.35H26.71Z"/><rect class="cls-5" x="25.19" y="24.82" width="6.59" height="6.83"/><path class="cls-1" d="M33.12,54.7H23.85V30.13h9.27Zm-6.23-3h3.18V33.17H26.89Z"/><rect class="cls-5" x="25.37" y="31.65" width="6.23" height="21.53"/><path class="cls-6" d="M56.34,34.19h0Z"/><rect class="cls-1" x="56.34" y="32.67" width="43.83" height="3.04"/><path class="cls-6" d="M56.34,40.52h0Z"/><rect class="cls-1" x="56.34" y="39" width="38.01" height="3.04"/><path class="cls-1" d="M145.13,12.89H.07V.21H145.13ZM3.11,9.84h139V3.25H3.11Z"/><rect class="cls-7" x="1.59" y="1.73" width="142.02" height="9.63"/><rect class="cls-1" x="5.14" y="4.94" width="3.13" height="3.04"/><rect class="cls-1" x="10.56" y="4.94" width="3.14" height="3.04"/><rect class="cls-1" x="15.99" y="4.94" width="3.14" height="3.04"/><path class="cls-1" d="M105.06,29.13H55.71V19.66h49.35Zm-46.31-3H102V22.71H58.75Z"/><path class="cls-1" d="M31.2,86.08h-22V70.36h22ZM12.26,83H28.15V73.4H12.26Z"/><rect class="cls-8" x="10.74" y="71.88" width="18.93" height="12.68"/><path class="cls-1" d="M57.57,86.08h-22V70.36h22ZM38.63,83H54.52V73.4H38.63Z"/><rect class="cls-9" x="37.11" y="71.88" width="18.93" height="12.68"/><path class="cls-1" d="M83.94,86.08H62V70.36h22ZM65,83H80.89V73.4H65Z"/><rect class="cls-10" x="63.48" y="71.88" width="18.93" height="12.68"/><path class="cls-1" d="M110.31,86.08h-22V70.36h22ZM91.37,83h15.89V73.4H91.37Z"/><rect class="cls-11" x="89.85" y="71.88" width="18.93" height="12.68"/><rect class="cls-1" x="105.93" y="38.28" width="3.04" height="6.41"/><rect class="cls-1" x="97.12" y="43.8" width="3.04" height="6.41" transform="translate(8.61 108.92) rotate(-60)"/><rect class="cls-1" x="95.82" y="55.87" width="6.41" height="3.04" transform="translate(-15.43 57.17) rotate(-29.99)"/><rect class="cls-1" x="106.68" y="59.05" width="3.04" height="6.41"/><rect class="cls-12" x="115.49" y="53.54" width="3.04" height="6.41" transform="translate(9.36 129.7) rotate(-60)"/><rect class="cls-1" x="113.43" y="44.83" width="6.41" height="3.04" transform="translate(-7.55 64.54) rotate(-30)"/><rect class="cls-1" x="126.91" y="64.18" width="3.04" height="10.83" transform="translate(-11.6 111.21) rotate(-45)"/><path class="cls-1" d="M120.1,78.13,107.73,48.9,137,61.27,125.23,66.4Zm-6.64-23.5,6.68,15.8,2.78-6.34,6.34-2.78Z"/><polygon class="cls-13" points="110.59 51.76 133.11 61.29 124.07 65.25 120.12 74.28 110.59 51.76"/></g></g></svg>