<svg xmlns="http://www.w3.org/2000/svg" xmlns:xlink="http://www.w3.org/1999/xlink" viewBox="0 0 144.63 90.62"><defs><style>.cls-1{fill:#f9dc5c;}.cls-2{fill:url(#linear-gradient);}.cls-3{fill:url(#linear-gradient-2);}.cls-4{fill:url(#linear-gradient-3);}.cls-5{fill:#effffa;}.cls-6{fill:url(#linear-gradient-4);}.cls-7{fill:url(#linear-gradient-5);}.cls-8{fill:url(#linear-gradient-6);}</style><linearGradient id="linear-gradient" x1="1.19" y1="12.12" x2="143.44" y2="12.12" gradientUnits="userSpaceOnUse"><stop offset="0" stop-color="#005cff"/><stop offset="1" stop-color="#0988c9"/></linearGradient><linearGradient id="linear-gradient-2" x1="1.19" y1="40.89" x2="85.73" y2="40.89" xlink:href="#linear-gradient"/><linearGradient id="linear-gradient-3" x1="121.57" y1="40.89" x2="143.44" y2="40.89" xlink:href="#linear-gradient"/><linearGradient id="linear-gradient-4" x1="1.19" y1="78.49" x2="23.06" y2="78.49" xlink:href="#linear-gradient"/><linearGradient id="linear-gradient-5" x1="63.27" y1="78.49" x2="85.14" y2="78.49" xlink:href="#linear-gradient"/><linearGradient id="linear-gradient-6" x1="120.98" y1="78.49" x2="142.84" y2="78.49" xlink:href="#linear-gradient"/></defs><title>Asset 1</title><g id="Layer_2" data-name="Layer 2"><g id="Layer_1-2" data-name="Layer 1"><path class="cls-1" d="M144.63,24.25H0V0H144.63ZM4.64,19.6h107v-15H4.64Z"/><rect class="cls-2" x="1.19" y="1.19" width="142.25" height="21.87"/><polygon class="cls-1" points="10.02 58.17 10.02 58.17 134.01 58.17 134.01 59.36 10.02 59.36 10.02 58.17"/><path class="cls-1" d="M86.93,53H0V28.77H86.93ZM4.64,48.38H56.7v-15H4.64Z"/><rect class="cls-3" x="1.19" y="29.96" width="84.54" height="21.87"/><path class="cls-1" d="M144.63,53H120.38V28.77h24.25ZM125,48.38h15v-15H125Z"/><rect class="cls-4" x="121.57" y="29.96" width="21.87" height="21.87"/><path class="cls-1" d="M86.33,90.62H62.08V66.37H86.33ZM66.72,86h15V71h-15Z"/><rect class="cls-5" x="64.4" y="68.69" width="19.61" height="19.61"/><path class="cls-1" d="M144,90.62H119.79V66.37H144ZM124.43,86h15V71h-15Z"/><rect class="cls-5" x="122.11" y="68.69" width="19.61" height="19.61"/><path class="cls-1" d="M24.25,90.62H0V66.37H24.25ZM4.64,86h15V71h-15Z"/><rect class="cls-5" x="1.19" y="67.56" width="21.87" height="21.87"/><rect class="cls-1" x="73.61" y="53.02" width="1.19" height="15.37"/><rect class="cls-1" x="132.82" y="58.17" width="1.19" height="9.41"/><rect class="cls-1" x="10.02" y="58.17" width="1.19" height="9.41"/><rect class="cls-1" x="45.18" y="23.69" width="1.19" height="5.38"/><rect class="cls-1" x="133.42" y="23.55" width="1.19" height="5.83"/><rect class="cls-6" x="1.19" y="67.56" width="21.87" height="21.87"/><rect class="cls-7" x="63.27" y="67.56" width="21.87" height="21.87"/><rect class="cls-8" x="120.98" y="67.56" width="21.87" height="21.87"/></g></g></svg>