<svg xmlns="http://www.w3.org/2000/svg" viewBox="0 0 93.03 125.59"><defs><style>.cls-1{fill:#49505a;}.cls-2{fill:#fff;}.cls-3{fill:#9bdae8;}.cls-4{fill:#ced6d7;}.cls-5{fill:#434a54;}</style></defs><title>Icon 7_1</title><g id="Layer_2" data-name="Layer 2"><g id="Layer_1-2" data-name="Layer 1"><path class="cls-1" d="M93,125.59H0V0H93Zm-88.8-4.23H88.8V4.23H4.23Z"/><polygon class="cls-2" points="90.35 122.71 90.35 58.31 90.35 2.88 67.21 2.88 2.67 2.88 2.67 26.79 2.67 58.31 2.67 122.71 90.35 122.71"/><rect class="cls-1" x="28.52" y="19.3" width="50.83" height="4.23"/><rect class="cls-1" x="28.52" y="27.68" width="39.88" height="4.23"/><rect class="cls-3" x="14.2" y="21.44" width="8.4" height="8.41"/><path class="cls-4" d="M24.72,32H12.09V19.32H24.72Zm-8.4-4.23h4.17V23.55H16.32Z"/><rect class="cls-1" x="28.52" y="40.58" width="50.83" height="4.23"/><rect class="cls-1" x="28.52" y="48.97" width="39.88" height="4.23"/><rect class="cls-3" x="14.2" y="42.72" width="8.4" height="8.4"/><path class="cls-4" d="M24.72,53.24H12.09V40.61H24.72ZM16.32,49h4.17V44.84H16.32Z"/><polygon class="cls-5" points="17.73 30.06 13.04 25.72 15.91 22.61 17.26 23.86 22.43 17.39 25.73 20.03 17.73 30.06"/><polygon class="cls-5" points="17.73 51.67 13.04 47.33 15.91 44.22 17.26 45.47 22.43 39 25.73 41.64 17.73 51.67"/><rect class="cls-1" x="28.52" y="61.11" width="50.83" height="4.23"/><rect class="cls-1" x="28.52" y="69.5" width="39.88" height="4.23"/><rect class="cls-3" x="14.2" y="63.25" width="8.4" height="8.4"/><path class="cls-4" d="M24.72,73.77H12.09V61.14H24.72Zm-8.4-4.23h4.17V65.37H16.32Z"/><polygon class="cls-5" points="17.73 72.2 13.04 67.86 15.91 64.76 17.26 66.01 22.43 59.53 25.73 62.17 17.73 72.2"/></g></g></svg>