<svg xmlns="http://www.w3.org/2000/svg" viewBox="0 0 135.76 117.32"><defs><style>.cls-1{fill:#fff;}.cls-2{fill:#49505a;}.cls-3{fill:#ced6d7;}</style></defs><title>Icon 6</title><g id="Layer_2" data-name="Layer 2"><g id="Layer_1-2" data-name="Layer 1"><rect class="cls-1" x="10.59" y="7.48" width="114.58" height="79.97" rx="4.35" ry="4.35"/><path class="cls-2" d="M120.83,89.21H14.94A6.12,6.12,0,0,1,8.82,83.1V11.83a6.13,6.13,0,0,1,6.12-6.12H120.83a6.12,6.12,0,0,1,6.11,6.12V83.1A6.12,6.12,0,0,1,120.83,89.21ZM14.94,9.25a2.58,2.58,0,0,0-2.58,2.58V83.1a2.59,2.59,0,0,0,2.58,2.58H120.83a2.59,2.59,0,0,0,2.58-2.58V11.83a2.58,2.58,0,0,0-2.58-2.58Z"/><path class="cls-3" d="M84.28,83.67a1.87,1.87,0,0,1-1.67,2H53.16a1.87,1.87,0,0,1-1.67-2V58.62a1.87,1.87,0,0,1,1.67-2H82.61a1.87,1.87,0,0,1,1.67,2Z"/><path class="cls-1" d="M109,7.35a.28.28,0,0,0-.26-.3H27a.28.28,0,0,0-.25.3v5a.29.29,0,0,0,.25.3h81.68a.29.29,0,0,0,.26-.3Z"/><path class="cls-2" d="M108.72,14.38H27a2.05,2.05,0,0,1-2-2.07v-5a2.05,2.05,0,0,1,2-2.07h81.68a2.05,2.05,0,0,1,2,2.07v5A2.05,2.05,0,0,1,108.72,14.38ZM28.56,10.84h78.65v-2H28.56Z"/><path class="cls-1" d="M21.37,19.55h0Z"/><path class="cls-1" d="M29.33,19.55h0Z"/><rect class="cls-2" x="29.33" y="17.78" width="5.5" height="3.54"/><path class="cls-1" d="M37.28,19.55h0Z"/><path class="cls-1" d="M45.24,19.55h0Z"/><rect class="cls-2" x="45.24" y="17.78" width="5.5" height="3.54"/><path class="cls-1" d="M53.2,19.55h0Z"/><path class="cls-1" d="M61.15,19.55h0Z"/><rect class="cls-2" x="61.15" y="17.78" width="5.5" height="3.54"/><path class="cls-1" d="M69.11,19.55h0Z"/><path class="cls-1" d="M77.07,19.55h0Z"/><rect class="cls-2" x="77.07" y="17.78" width="5.5" height="3.54"/><path class="cls-1" d="M85,19.55h0Z"/><path class="cls-1" d="M93,19.55h0Z"/><rect class="cls-2" x="92.98" y="17.78" width="5.5" height="3.54"/><path class="cls-1" d="M100.94,19.55h0Z"/><path class="cls-1" d="M108.9,19.55h0Z"/><rect class="cls-2" x="108.9" y="17.78" width="5.5" height="3.54"/><path class="cls-1" d="M21.37,25.89h0Z"/><rect class="cls-2" x="21.37" y="24.13" width="5.5" height="3.54"/><path class="cls-1" d="M29.33,25.89h0Z"/><path class="cls-1" d="M37.28,25.89h0Z"/><rect class="cls-2" x="37.28" y="24.13" width="5.5" height="3.54"/><path class="cls-1" d="M45.24,25.89h0Z"/><path class="cls-1" d="M53.2,25.89h0Z"/><rect class="cls-2" x="53.2" y="24.13" width="5.5" height="3.54"/><path class="cls-1" d="M61.15,25.89h0Z"/><path class="cls-1" d="M69.11,25.89h0Z"/><rect class="cls-2" x="69.11" y="24.13" width="5.5" height="3.54"/><path class="cls-1" d="M77.07,25.89h0Z"/><path class="cls-1" d="M85,25.89h0Z"/><rect class="cls-2" x="85.03" y="24.13" width="5.5" height="3.54"/><path class="cls-1" d="M93,25.89h0Z"/><path class="cls-1" d="M100.94,25.89h0Z"/><rect class="cls-2" x="100.94" y="24.13" width="5.5" height="3.54"/><path class="cls-1" d="M108.9,25.89h0Z"/><path class="cls-1" d="M21.37,32.24h0Z"/><path class="cls-1" d="M29.33,32.24h0Z"/><rect class="cls-2" x="29.33" y="30.47" width="5.5" height="3.54"/><path class="cls-1" d="M37.28,32.24h0Z"/><path class="cls-1" d="M45.24,32.24h0Z"/><rect class="cls-2" x="45.24" y="30.47" width="5.5" height="3.54"/><path class="cls-1" d="M53.2,32.24h0Z"/><path class="cls-1" d="M61.15,32.24h0Z"/><rect class="cls-2" x="61.15" y="30.47" width="5.5" height="3.54"/><path class="cls-1" d="M69.11,32.24h0Z"/><path class="cls-1" d="M77.07,32.24h0Z"/><rect class="cls-2" x="77.07" y="30.47" width="5.5" height="3.54"/><path class="cls-1" d="M85,32.24h0Z"/><path class="cls-1" d="M93,32.24h0Z"/><rect class="cls-2" x="92.98" y="30.47" width="5.5" height="3.54"/><path class="cls-1" d="M100.94,32.24h0Z"/><path class="cls-1" d="M108.9,32.24h0Z"/><rect class="cls-2" x="108.9" y="30.47" width="5.5" height="3.54"/><path class="cls-1" d="M21.37,38.59h0Z"/><rect class="cls-2" x="21.37" y="36.82" width="5.5" height="3.54"/><path class="cls-1" d="M29.33,38.59h0Z"/><path class="cls-1" d="M37.28,38.59h0Z"/><rect class="cls-2" x="37.28" y="36.82" width="5.5" height="3.54"/><path class="cls-1" d="M45.24,38.59h0Z"/><path class="cls-1" d="M53.2,38.59h0Z"/><rect class="cls-2" x="53.2" y="36.82" width="5.5" height="3.54"/><path class="cls-1" d="M61.15,38.59h0Z"/><path class="cls-1" d="M69.11,38.59h0Z"/><rect class="cls-2" x="69.11" y="36.82" width="5.5" height="3.54"/><path class="cls-1" d="M77.07,38.59h0Z"/><path class="cls-1" d="M85,38.59h0Z"/><rect class="cls-2" x="85.03" y="36.82" width="5.5" height="3.54"/><path class="cls-1" d="M93,38.59h0Z"/><path class="cls-1" d="M100.94,38.59h0Z"/><rect class="cls-2" x="100.94" y="36.82" width="5.5" height="3.54"/><path class="cls-1" d="M108.9,38.59h0Z"/><rect class="cls-2" x="108.9" y="36.82" width="5.5" height="3.54"/><path class="cls-1" d="M21.37,44.93h0Z"/><rect class="cls-2" x="21.37" y="43.16" width="5.5" height="3.54"/><path class="cls-1" d="M29.33,44.93h0Z"/><rect class="cls-2" x="29.33" y="43.16" width="5.5" height="3.54"/><path class="cls-1" d="M37.28,44.93h0Z"/><rect class="cls-2" x="37.28" y="43.16" width="5.5" height="3.54"/><path class="cls-1" d="M45.24,44.93h0Z"/><rect class="cls-2" x="45.24" y="43.16" width="5.5" height="3.54"/><path class="cls-1" d="M53.2,44.93h0Z"/><rect class="cls-2" x="53.2" y="43.16" width="5.5" height="3.54"/><path class="cls-1" d="M61.15,44.93h0Z"/><rect class="cls-2" x="61.15" y="43.16" width="5.5" height="3.54"/><path class="cls-1" d="M69.11,44.93h0Z"/><rect class="cls-2" x="69.11" y="43.16" width="5.5" height="3.54"/><path class="cls-1" d="M77.07,44.93h0Z"/><rect class="cls-2" x="77.07" y="43.16" width="5.5" height="3.54"/><path class="cls-1" d="M85,44.93h0Z"/><rect class="cls-2" x="85.03" y="43.16" width="5.5" height="3.54"/><path class="cls-1" d="M93,44.93h0Z"/><rect class="cls-2" x="92.98" y="43.16" width="5.5" height="3.54"/><path class="cls-1" d="M100.94,44.93h0Z"/><rect class="cls-2" x="100.94" y="43.16" width="5.5" height="3.54"/><path class="cls-1" d="M108.9,44.93h0Z"/><rect class="cls-2" x="108.9" y="43.16" width="5.5" height="3.54"/><path class="cls-1" d="M21.37,51.28h0Z"/><rect class="cls-2" x="21.37" y="49.51" width="5.5" height="3.54"/><path class="cls-1" d="M29.33,51.28h0Z"/><rect class="cls-2" x="29.33" y="49.51" width="5.5" height="3.54"/><path class="cls-1" d="M37.28,51.28h0Z"/><rect class="cls-2" x="37.28" y="49.51" width="5.5" height="3.54"/><path class="cls-1" d="M45.24,51.28h0Z"/><rect class="cls-2" x="45.24" y="49.51" width="5.5" height="3.54"/><path class="cls-1" d="M53.2,51.28h0Z"/><rect class="cls-2" x="53.2" y="49.51" width="29.44" height="3.54"/><path class="cls-1" d="M85,51.28h0Z"/><rect class="cls-2" x="85.03" y="49.51" width="5.5" height="3.54"/><path class="cls-1" d="M93,51.28h0Z"/><rect class="cls-2" x="92.98" y="49.51" width="5.5" height="3.54"/><path class="cls-1" d="M100.94,51.28h0Z"/><rect class="cls-2" x="100.94" y="49.51" width="5.5" height="3.54"/><path class="cls-1" d="M108.9,51.28h0Z"/><rect class="cls-2" x="108.9" y="49.51" width="5.5" height="3.54"/><path class="cls-1" d="M132.7,7.66a11.78,11.78,0,0,0-10.2-5.89H13.27A11.78,11.78,0,0,0,3.07,7.66Z"/><path class="cls-2" d="M135.76,9.43H0L1.54,6.78A13.6,13.6,0,0,1,13.27,0H122.5a13.61,13.61,0,0,1,11.73,6.78ZM6.83,5.89H128.94a10.06,10.06,0,0,0-6.44-2.35H13.27A10.06,10.06,0,0,0,6.83,5.89Z"/><path class="cls-1" d="M119.39,70.38a4.17,4.17,0,0,0-4.17-4.17c-2.3,0-4.16.82-4.16,3.12v-1a4.17,4.17,0,0,0-8.33,0V66.21a4.16,4.16,0,0,0-8.32,0v2.34c0-5.63,0-24,0-24a4.31,4.31,0,1,0-8.61,0l0,42.08-.08-2.05V76a6.35,6.35,0,0,0-6.36-6.36H77.17c-.09,0,.09,0,0,0v8s0,0,0,0V88.18l12,14.33v-.31a11.18,11.18,0,0,0,5,2.76v8.53h20.82V103.05a11.15,11.15,0,0,0,4.5-9V74.67Z"/><path class="cls-2" d="M116.86,115.26H92.5v-9a14.38,14.38,0,0,1-1.51-.66v1.74L75.4,88.82V76.34h0V71.22h0V68h.06v-.14h3.82A8.1,8.1,0,0,1,84,69.36V44.57a6.08,6.08,0,1,1,12.15,0h0s0,8.91,0,16.22a5.83,5.83,0,0,1,2.4-.51,5.94,5.94,0,0,1,5.16,3,5.92,5.92,0,0,1,8.17,1.83,7.49,7.49,0,0,1,3.32-.67,5.94,5.94,0,0,1,5.93,5.94l.21,4.2V94.1a12.83,12.83,0,0,1-4.5,9.8ZM96,111.72h17.28v-9.55l.72-.54a9.33,9.33,0,0,0,3.79-7.53V74.67l-.21-4.21a2.42,2.42,0,0,0-2.4-2.48c-2.39,0-2.39.91-2.39,1.35h-3.54v-1a2.4,2.4,0,0,0-4.79,0H101V66.21a2.4,2.4,0,0,0-4.79,0v2.33H92.64c0-5.67,0-24,0-24a2.54,2.54,0,1,0-5.07,0l0,42.08L84,86.72l-.09-2V76a4.6,4.6,0,0,0-4.59-4.6h-.35v6.1L79,78.85l-.09,0v8.64L89.25,99.79l1.19,1.13a9.45,9.45,0,0,0,4.25,2.32l1.35.33Z"/><rect class="cls-1" x="85.97" y="102.71" width="37.58" height="9.35"/><polygon class="cls-2" points="125.33 112.05 121.79 112.05 121.79 104.47 87.74 104.47 87.74 112.05 84.2 112.05 84.2 100.94 125.33 100.94 125.33 112.05"/><rect class="cls-1" x="85.21" y="109.15" width="42.38" height="8.17"/><rect class="cls-1" x="106.76" y="109.15" width="20.83" height="8.17"/><polygon class="cls-2" points="129.35 117.32 125.82 117.32 125.82 110.92 86.98 110.92 86.98 117.32 83.44 117.32 83.44 107.38 129.35 107.38 129.35 117.32"/><path class="cls-1" d="M52.37,68.71l0,17.94.09-2.05V76a6.35,6.35,0,0,1,6.36-6.36H61c.09,0-.09,0,0,0v8s0,0,0,0V88.18L48.9,102.51v-.31a11.08,11.08,0,0,1-5,2.76v8.53H23V103.05a11.15,11.15,0,0,1-4.5-9V68.71Z"/><path class="cls-2" d="M45.62,115.26H21.26V103.9a12.83,12.83,0,0,1-4.5-9.8V68.71H20.3V94.1a9.3,9.3,0,0,0,3.79,7.53l.71.54v9.55H42.08v-8.15l1.35-.33a9.4,9.4,0,0,0,4.25-2.32l1.19-1.13L59.19,87.53V78.9l-.09,0,.09-1.37V71.4h-.35a4.61,4.61,0,0,0-4.6,4.6v8.6l-.08,2.12-3.54-.07,0-17.93h3.54v.66a8,8,0,0,1,4.7-1.5h3.79V68h.08l0,1.52,0,1.68h0v5.11h0V88.82L47.13,107.35v-1.74a13.52,13.52,0,0,1-1.51.66Z"/><rect class="cls-1" x="14.57" y="102.71" width="37.58" height="9.35"/><polygon class="cls-2" points="53.92 112.05 50.38 112.05 50.38 104.47 16.34 104.47 16.34 112.05 12.8 112.05 12.8 100.94 53.92 100.94 53.92 112.05"/><rect class="cls-1" x="10.54" y="109.15" width="42.38" height="8.17"/><rect class="cls-1" x="10.54" y="109.15" width="20.83" height="8.17"/><polygon class="cls-2" points="54.69 117.32 51.15 117.32 51.15 110.92 12.31 110.92 12.31 117.32 8.77 117.32 8.77 107.38 54.69 107.38 54.69 117.32"/><path class="cls-1" d="M18.53,68.86V51.44c0-1,1.87-1.86,4.17-1.86h0c2.31,0,4.18.83,4.18,1.86V68.86Z"/><path class="cls-2" d="M28.64,68.86H25.11V53.75a2.41,2.41,0,0,0-4.81,0V68.86H16.76V53.75a5.94,5.94,0,1,1,11.88,0Z"/><path class="cls-1" d="M27,68.86V44.69a4.17,4.17,0,0,1,4.17-4.17h0a4.18,4.18,0,0,1,4.18,4.17V68.86Z"/><path class="cls-2" d="M37.13,68.86H33.6V44.69a2.41,2.41,0,0,0-4.81,0V68.86H25.25V44.69a5.94,5.94,0,0,1,11.88,0Z"/><path class="cls-1" d="M35.51,68.86V40.42a4.18,4.18,0,0,1,4.17-4.18h0a4.18,4.18,0,0,1,4.18,4.18V68.86Z"/><path class="cls-2" d="M45.62,68.86H42.09V40.42a2.41,2.41,0,1,0-4.81,0V68.86H33.74V40.42a5.94,5.94,0,1,1,11.88,0Z"/><path class="cls-1" d="M44,68.86V47.64a4.17,4.17,0,0,1,4.17-4.17h0a4.17,4.17,0,0,1,4.18,4.17V68.86Z"/><path class="cls-2" d="M54.11,68.86H50.58V47.64a2.41,2.41,0,1,0-4.81,0V68.86H42.23V47.64a5.94,5.94,0,0,1,11.88,0Z"/><rect class="cls-2" x="52.35" y="63.74" width="1.77" height="22.12"/><rect class="cls-2" x="83.98" y="65.57" width="1.75" height="20.96"/></g></g></svg>